<svg xmlns="http://www.w3.org/2000/svg" viewBox="0 0 512 512">
  <defs>
    <linearGradient id="bg" x1="0" y1="0" x2="512" y2="512" gradientUnits="userSpaceOnUse">
      <stop offset="0" stop-color="#4f46e5"/>
      <stop offset="1" stop-color="#7c3aed"/>
    </linearGradient>
  </defs>
  <rect width="512" height="512" rx="108" fill="url(#bg)"/>
  <circle cx="256" cy="130" r="36" fill="#fff" opacity=".92"/>
  <line x1="256" y1="166" x2="256" y2="210" stroke="#fff" stroke-width="7" stroke-linecap="round" opacity=".65"/>
  <line x1="256" y1="210" x2="152" y2="210" stroke="#fff" stroke-width="7" stroke-linecap="round" opacity=".65"/>
  <line x1="256" y1="210" x2="360" y2="210" stroke="#fff" stroke-width="7" stroke-linecap="round" opacity=".65"/>
  <circle cx="152" cy="252" r="28" fill="#fff" opacity=".88"/>
  <circle cx="360" cy="252" r="28" fill="#fff" opacity=".88"/>
  <line x1="152" y1="280" x2="152" y2="316" stroke="#fff" stroke-width="5" stroke-linecap="round" opacity=".55"/>
  <line x1="152" y1="316" x2="100" y2="316" stroke="#fff" stroke-width="5" stroke-linecap="round" opacity=".55"/>
  <line x1="152" y1="316" x2="204" y2="316" stroke="#fff" stroke-width="5" stroke-linecap="round" opacity=".55"/>
  <line x1="360" y1="280" x2="360" y2="316" stroke="#fff" stroke-width="5" stroke-linecap="round" opacity=".55"/>
  <line x1="360" y1="316" x2="308" y2="316" stroke="#fff" stroke-width="5" stroke-linecap="round" opacity=".55"/>
  <line x1="360" y1="316" x2="412" y2="316" stroke="#fff" stroke-width="5" stroke-linecap="round" opacity=".55"/>
  <circle cx="100" cy="350" r="20" fill="#fff" opacity=".78"/>
  <circle cx="204" cy="350" r="20" fill="#fff" opacity=".78"/>
  <circle cx="308" cy="350" r="20" fill="#fff" opacity=".78"/>
  <circle cx="412" cy="350" r="20" fill="#fff" opacity=".78"/>
  <circle cx="220" cy="430" r="7" fill="#fff" opacity=".25"/>
  <circle cx="256" cy="430" r="7" fill="#fff" opacity=".25"/>
  <circle cx="292" cy="430" r="7" fill="#fff" opacity=".25"/>
</svg>
